<?xml version="1.0" encoding="UTF-8"?>
<svg id="Layer_1" xmlns="http://www.w3.org/2000/svg" version="1.1" viewBox="0 0 1024 768">
  <!-- Generator: Adobe Illustrator 30.2.1, SVG Export Plug-In . SVG Version: 2.1.1 Build 1)  -->
  <defs>
    <style>
      .st0 {
        fill: blue;
      }

      .st1 {
        fill: #231f20;
      }
    </style>
  </defs>
  <path class="st1" d="M171.39,141.87c-6.81-14.18-12.49-24.25-17.02-30.21-4.55-5.96-10.51-9.79-17.87-11.49l-33.19-2.56v-13.61h278.3v13.61h-12.76c-4.55,0-10.36.72-17.45,2.13-7.1,1.42-10.64,7.24-10.64,17.45,0,4.55,1.13,10.36,3.41,17.45,2.26,7.1,4.53,14.04,6.81,20.85l66.38,158.3c5.66-13.62,14.75-35.88,27.24-66.81,12.47-30.92,22.41-57.15,29.79-78.73,7.36-21.56,11.06-37.15,11.06-46.81,0-7.37-1.27-12.47-3.83-15.32-2.56-2.83-9.51-5.1-20.85-6.81l-27.24-1.71v-13.61h142.98v13.61c-3.42,0-6.97.15-10.66.43-3.7.3-10.51,1.28-20.46,2.98-9.95,1.7-18.34,6.81-25.16,15.32-6.82,8.51-19.47,36.31-37.94,83.4-18.47,47.1-38.37,97.02-59.68,149.79-21.31,52.77-45.18,107.53-71.61,164.25-26.44,56.73-51.16,99.28-74.17,127.66-23.02,28.36-53.86,42.55-92.5,42.55-22.74,0-43.61-7.66-62.66-22.98-19.04-15.31-28.56-35.19-28.56-59.57,0-22.7,7.7-42,23.06-57.88,15.37-15.89,35.03-23.83,58.96-23.83s43.57,7.09,57.24,21.28c13.67,14.18,20.5,30.92,20.5,50.21s-5.36,34.9-16.05,46.81c-10.7,11.91-16.05,19-16.05,21.27,5.06-.57,10.41-1.14,16.05-1.7,12.38-5.68,24.35-16.46,35.89-32.34,11.54-15.89,21.81-32.34,30.82-49.36,9.02-17.02,18.59-37.17,28.73-60.43-12.49-29.5-27.95-65.96-46.39-109.36-18.44-43.4-38.87-91.2-61.27-143.41-22.42-52.19-40.15-92.47-53.19-120.85Z"/>
  <path class="st0" d="M722.02,85.54c-120.71,0-210.33,90.35-210.33,201.66v1.45c0,111.31,88.9,200.21,208.89,200.21s210.33-90.35,210.33-201.66v-1.45c0-111.31-88.9-200.22-208.89-200.22Z"/>
</svg>