<?xml version="1.0" encoding="UTF-8"?>
<svg id="Layer_1" xmlns="http://www.w3.org/2000/svg" version="1.1" viewBox="0 0 1190.55 841.89">
  <!-- Generator: Adobe Illustrator 30.2.1, SVG Export Plug-In . SVG Version: 2.1.1 Build 1)  -->
  <defs>
    <style>
      .st0 {
        fill: #fff;
      }

      .st1 {
        fill: blue;
      }
    </style>
  </defs>
  <path class="st1" d="M533.86,324.26c-61.18,0-106.61,45.8-106.61,102.22v.73c0,56.42,45.06,101.48,105.88,101.48s106.61-45.8,106.61-102.22v-.73c0-56.42-45.06-101.49-105.88-101.49Z"/>
  <g>
    <path class="st0" d="M350.31,294.17c11.78,0,21.76-3.93,29.95-11.79,8.19-7.86,12.29-17.51,12.29-28.94s-4.1-21.36-12.29-28.94c-8.19-7.57-18.17-11.37-29.95-11.37s-21.34,3.94-29.53,11.79c-8.19,7.86-12.28,17.36-12.28,28.51s4.09,21.09,12.28,28.94c8.19,7.87,18.03,11.79,29.53,11.79Z"/>
    <path class="st0" d="M417.56,521.29l-6.86-.29c-.09,0-.19-.01-.28-.02-8.21-.87-13.16-2.93-14.87-6.2-1.72-3.28-2.57-10.08-2.57-20.37l-.43-19.72v-146.22c0-1.9-1.54-3.43-3.43-3.43h-165.08c-1.9,0-3.43,1.54-3.43,3.43v.21c0,1.81,1.41,3.31,3.22,3.42l10.33.65c.11,0,.24.02.35.04,5.61.85,9.06,1.99,10.33,3.4,1.29,1.43,1.93,4.01,1.93,7.72,0,4.86-1.86,12.72-5.57,23.58-3.72,10.87-8.72,24.08-15.01,39.66-4.35,10.76-7.87,19.44-10.58,26.05-1.16,2.83-5.15,2.82-6.33,0l-30.2-72.03c-.03-.08-.07-.16-.09-.25-1.13-3.39-2.26-6.85-3.39-10.38-1.15-3.57-1.72-6.5-1.72-8.79,0-5.15,1.78-8.07,5.36-8.79,3.57-.71,6.5-1.07,8.79-1.07h3c1.9,0,3.43-1.54,3.43-3.43s-1.54-3.43-3.43-3.43H57.66c-1.9,0-3.43,1.54-3.43,3.43v.25c0,1.79,1.38,3.28,3.17,3.42l13.2,1.02c.23.02.47.05.7.11,3.55.9,6.44,2.8,8.66,5.7,2.28,3,5.15,8.08,8.58,15.22,6.57,14.3,15.5,34.59,26.8,60.89,11.29,26.3,21.58,50.38,30.87,72.25,9.01,21.21,16.61,39.14,22.8,53.76.37.87.35,1.85-.03,2.72-4.88,11.14-9.51,20.83-13.87,29.07-4.54,8.58-9.71,16.87-15.53,24.87-5.64,7.76-11.48,13.1-17.51,16.02-.38.18-.8.29-1.22.33-.05,0-.11.01-.16.02-3.07.31-4.96-3.25-2.97-5.61,1.06-1.27,2.32-2.71,3.78-4.33,5.39-6,8.09-13.87,8.09-23.58s-3.44-18.15-10.33-25.3c-6.89-7.15-16.5-10.72-28.84-10.72s-21.96,4-29.71,12.01c-7.38,7.64-11.26,16.84-11.59,27.6-.41,13.08,5.99,25.49,16.54,33.23,9.01,6.61,18.8,9.91,29.4,9.91,19.47,0,35.01-7.15,46.6-21.44,11.6-14.3,24.05-35.74,37.37-64.32,13.31-28.58,25.34-56.17,36.08-82.76,10.74-26.59,20.76-51.74,30.07-75.47,9.31-23.73,15.68-37.73,19.12-42.02s7.67-6.86,12.68-7.72c3.65-.63,6.45-1.05,8.42-1.3l5.96.44c9.15.86,14.29,3,15.44,6.43,1.13,3.41,1.99,8.51,2.56,15.31,0,.08.01.16.01.24l.43,17.46v102.48l-.43,19.72c0,10.58-.86,17.44-2.58,20.58-1.71,3.13-6.67,5.12-14.88,5.99-.09,0-.19.02-.28.02l-6.87.29c-1.84.08-3.29,1.59-3.29,3.43v.14c0,1.9,1.54,3.43,3.43,3.43h132.52c1.9,0,3.43-1.54,3.43-3.43v-.14c0-1.84-1.45-3.35-3.29-3.43Z"/>
  </g>
  <g>
    <path class="st0" d="M1068.04,294.17c11.78,0,21.76-3.93,29.95-11.79,8.19-7.86,12.29-17.51,12.29-28.94s-4.1-21.36-12.29-28.94c-8.19-7.57-18.17-11.37-29.95-11.37s-21.34,3.94-29.53,11.79c-8.19,7.86-12.28,17.36-12.28,28.51s4.09,21.09,12.28,28.94c8.19,7.87,18.03,11.79,29.53,11.79Z"/>
    <path class="st0" d="M1138.17,521.29l-6.86-.29c-.09,0-.19-.01-.28-.02-8.21-.87-13.16-2.93-14.87-6.2-1.72-3.28-2.57-10.08-2.57-20.37l-.43-19.72v-146.22c0-1.9-1.54-3.43-3.43-3.43h-165.51c-1.9,0-3.43,1.54-3.43,3.43v.05c0,1.87,1.5,3.37,3.38,3.43,1.21.04,2.45.09,3.7.16,2.43.15,5.36.5,8.79,1.07,3.43.58,6.14,1.43,8.15,2.57,2,1.15,3,3.86,3,8.15,0,4.86-1.86,12.86-5.57,24.01l-26.31,68.64c-1.14,2.97-5.34,2.95-6.42-.03-3.19-8.77-7-19.49-11.44-32.16-6-17.15-10.36-30.08-13.08-38.81-2.72-8.72-4.22-14.08-4.5-16.08-.29-2-.43-4-.43-6,0-6,2-9.43,6-10.29,4-.86,7.14-1.29,9.43-1.29h3c1.9,0,3.43-1.54,3.43-3.43s-1.54-3.43-3.43-3.43h-124.34c-1.9,0-3.43,1.54-3.43,3.43v.3c0,1.77,1.35,3.26,3.12,3.42l6.31.57c4.29.86,7.43,3.22,9.43,7.07,2,3.86,4.14,8.65,6.43,14.36l8.56,23.64c.29.8.27,1.67-.04,2.45l-23.17,57.38c-1.18,2.92-5.36,2.83-6.43-.12-4.89-13.44-9.58-26.79-14.07-40.04-5.44-16.01-9.3-27.51-11.58-34.52-2.29-7-3.58-11.5-3.86-13.51-.29-2-.43-4-.43-6,0-6,1.93-9.43,5.79-10.29s6.36-1.29,7.51-1.29h3v-3.43c0-1.9-1.54-3.43-3.43-3.43h-128.21c-1.9,0-3.43,1.54-3.43,3.43v.03c0,1.86,1.48,3.39,3.34,3.43,1.88.03,3.83.1,5.88.18,3.28.15,6.65.58,10.08,1.29,3.43.72,6,2.36,7.72,4.93s4.5,8.86,8.36,18.87c3.86,10.01,11.72,31.8,23.58,65.39,11.86,33.59,20.08,56.82,24.66,69.68,4.29,12.07,8.46,23.89,12.5,35.45.48,1.38,1.77,2.28,3.23,2.28h25.67c1.41,0,2.68-.86,3.19-2.18l51.1-129.92c1.16-2.96,5.37-2.88,6.43.11l45.87,129.69c.48,1.37,1.78,2.29,3.24,2.29h26.08c1.42,0,2.7-.88,3.21-2.21l62.62-164.59c7.51-18.29,15.6-28.15,24.28-29.58l10.59-1.16,4.14.31c9.15.86,14.29,3,15.44,6.43,1.13,3.41,1.99,8.51,2.56,15.31,0,.08.01.16.01.24l.43,17.46v102.48l-.43,19.72c0,10.58-.87,17.44-2.58,20.58-1.71,3.13-6.67,5.12-14.88,5.99-.09,0-.19.02-.28.02l-6.87.29c-1.84.08-3.29,1.59-3.29,3.43v.14c0,1.9,1.54,3.43,3.43,3.43h132.52c1.9,0,3.43-1.54,3.43-3.43v-.14c0-1.84-1.45-3.35-3.29-3.43Z"/>
  </g>
  <path class="st0" d="M430.57,601.42v10.03h8.08v-10.03h7.87v26.85h-7.87v-10.15h-8.08v10.15h-7.87v-26.85h7.87Z"/>
  <path class="st0" d="M453.28,601.42h8.99l2.36,4.43c.47.88.9,1.72,1.28,2.51s.65,1.32.79,1.6c.14-.28.4-.81.79-1.6s.8-1.62,1.24-2.51l2.28-4.43h8.99l-9.36,15.21v11.64h-7.87v-11.64l-9.49-15.21Z"/>
  <path class="st0" d="M499.72,601.42c2.62,0,4.79.56,6.5,1.68s2.57,3.03,2.57,5.74c0,.86-.22,1.73-.66,2.63-.44.9-1.01,1.58-1.7,2.05,1.38.44,2.5,1.23,3.35,2.36.86,1.13,1.29,2.57,1.29,4.31,0,2.79-1.01,4.83-3.03,6.13-2.01,1.3-4.61,1.95-7.79,1.95h-13.51v-26.85h12.97ZM500.86,611.45c.37-.3.56-.76.56-1.37,0-.66-.18-1.16-.54-1.49-.36-.33-.98-.5-1.86-.5h-4.39v3.81h4.39c.86,0,1.47-.15,1.84-.46ZM502.12,621.21c.5-.26.74-.77.74-1.51s-.25-1.25-.74-1.51-1.19-.39-2.07-.39h-5.43v3.81h5.43c.88,0,1.57-.13,2.07-.39Z"/>
  <path class="st0" d="M530.71,601.42c2.65,0,4.91.47,6.79,1.41,1.88.94,3.29,2.21,4.25,3.81s1.43,3.4,1.43,5.39c0,1.6-.36,3.14-1.08,4.62-.72,1.48-1.77,2.69-3.15,3.62l5.02,8h-8.99l-3.06-5.76c-.83.08-1.48.12-1.95.12h-3.23v5.63h-7.87v-26.85h11.85ZM533.71,614.83c.76-.76,1.14-1.69,1.14-2.8s-.38-2.04-1.14-2.8c-.76-.76-1.72-1.14-2.88-1.14h-4.1v7.87h4.06c1.19,0,2.16-.38,2.92-1.14Z"/>
  <path class="st0" d="M558.93,601.42v26.85h-7.87v-26.85h7.87Z"/>
  <path class="st0" d="M578.81,601.42c2.93,0,5.49.6,7.71,1.8,2.21,1.2,3.92,2.83,5.11,4.87,1.2,2.04,1.8,4.29,1.8,6.75s-.6,4.71-1.8,6.75c-1.2,2.05-2.91,3.67-5.11,4.87-2.21,1.2-4.78,1.8-7.71,1.8h-11.19v-26.85h11.19ZM583.31,619.69c1.2-1.27,1.8-2.89,1.8-4.85s-.6-3.58-1.8-4.85c-1.2-1.27-2.8-1.91-4.78-1.91h-3.02v13.51h3.02c1.99,0,3.58-.63,4.78-1.91Z"/>
  <path class="st0" d="M622.52,601.42v26.85h-7.87v-26.85h7.87Z"/>
  <path class="st0" d="M638.06,601.42l8.54,11.89c.25.33.5.72.74,1.16.25.44.4.73.46.87v-13.92h7.87v26.85h-6.84l-8.54-11.68c-.25-.33-.5-.72-.74-1.16-.25-.44-.4-.73-.45-.87v13.71h-7.87v-26.85h6.83Z"/>
  <path class="st0" d="M662.91,608.09v-6.67h24.69v6.67h-8.41v20.18h-7.87v-20.18h-8.41Z"/>
  <path class="st0" d="M716.2,601.42v6.67h-13.46v3.27h12.92v6.59h-12.92v3.65h13.96v6.67h-21.83v-26.85h21.34Z"/>
  <path class="st0" d="M731.86,601.42v20.18h14.29v6.67h-22.17v-26.85h7.87Z"/>
  <path class="st0" d="M761.48,601.42v20.18h14.29v6.67h-22.17v-26.85h7.87Z"/>
  <path class="st0" d="M791.11,601.42v26.85h-7.87v-26.85h7.87Z"/>
  <path class="st0" d="M805.85,626.92c-2.18-1.23-3.87-2.91-5.07-5.03-1.2-2.13-1.8-4.47-1.8-7.04s.6-4.87,1.78-6.98c1.19-2.11,2.86-3.78,5.01-5.01,2.16-1.23,4.63-1.84,7.42-1.84,2.05,0,3.95.34,5.72,1.01,1.77.68,3.27,1.64,4.52,2.88l-5.18,5.35c-.86-.88-1.65-1.46-2.38-1.72-.73-.26-1.51-.39-2.34-.39-1.16,0-2.23.29-3.19.87-.97.58-1.73,1.38-2.3,2.4-.56,1.02-.85,2.17-.85,3.44,0,1.99.6,3.62,1.78,4.89s2.71,1.91,4.56,1.91c.94,0,1.77-.15,2.49-.44.72-.29,1.41-.66,2.07-1.1v-2.44h-3.69v-4.64h10.48v10.4c-1.13,1.66-2.73,2.96-4.78,3.92-2.06.95-4.3,1.43-6.73,1.43-2.82,0-5.32-.61-7.5-1.84Z"/>
  <path class="st0" d="M854.91,601.42v6.67h-13.46v3.27h12.92v6.59h-12.92v3.65h13.96v6.67h-21.83v-26.85h21.34Z"/>
  <path class="st0" d="M869.53,601.42l8.54,11.89c.25.33.5.72.74,1.16.25.44.4.73.46.87v-13.92h7.87v26.85h-6.84l-8.54-11.68c-.25-.33-.5-.72-.74-1.16-.25-.44-.4-.73-.45-.87v13.71h-7.87v-26.85h6.83Z"/>
  <path class="st0" d="M901.81,626.92c-2.16-1.23-3.83-2.91-5.01-5.03s-1.78-4.47-1.78-7.04.6-4.87,1.78-6.98c1.19-2.11,2.86-3.78,5.01-5.01,2.16-1.23,4.63-1.84,7.42-1.84,2.05,0,3.95.34,5.72,1.01,1.77.68,3.27,1.64,4.52,2.88l-5.18,5.35c-.86-.88-1.65-1.46-2.38-1.72-.73-.26-1.51-.39-2.34-.39-1.16,0-2.23.29-3.19.87-.97.58-1.73,1.38-2.3,2.4-.56,1.02-.85,2.17-.85,3.44,0,1.99.6,3.62,1.78,4.89s2.71,1.91,4.56,1.91c1.1,0,2.15-.25,3.13-.75.98-.5,1.84-1.24,2.59-2.24l5.02,5.51c-1.35,1.49-2.96,2.63-4.83,3.42s-3.94,1.18-6.24,1.18c-2.79,0-5.26-.61-7.42-1.84Z"/>
  <path class="st0" d="M948.58,601.42v6.67h-13.46v3.27h12.92v6.59h-12.92v3.65h13.96v6.67h-21.83v-26.85h21.34Z"/>
  <path class="st0" d="M973.54,627.92c-1.61-.57-2.78-1.08-3.5-1.55-.72-.47-1.16-.75-1.33-.83l2.57-6.13c1.41.77,2.74,1.37,4,1.8,1.26.43,2.84.64,4.74.64.69,0,1.4-.12,2.14-.37.73-.25,1.1-.68,1.1-1.28,0-.5-.22-.86-.66-1.08-.44-.22-.93-.39-1.47-.52s-.9-.21-1.1-.27c-3.23-.72-5.81-1.75-7.73-3.09-1.92-1.34-2.88-3.38-2.88-6.11,0-1.79.48-3.3,1.45-4.52.97-1.21,2.26-2.12,3.87-2.71,1.62-.59,3.38-.89,5.28-.89,2.1,0,3.98.23,5.66.7,1.67.47,3.25,1.15,4.74,2.03l-2.65,6.09c-.77-.52-1.93-.98-3.46-1.37-1.53-.39-2.96-.58-4.29-.58-.55,0-1.09.09-1.62.27-.52.18-.79.5-.79.97,0,.44.2.79.6,1.04s1,.47,1.8.66c2.05.44,3.85.95,5.41,1.51,1.56.57,2.96,1.49,4.18,2.78,1.23,1.28,1.84,2.98,1.84,5.08,0,1.93-.54,3.54-1.64,4.83-1.09,1.28-2.51,2.23-4.25,2.84-1.74.61-3.59.91-5.55.91-2.71,0-4.87-.28-6.49-.85Z"/>
  <path class="st0" d="M997.43,608.09v-6.67h24.69v6.67h-8.41v20.18h-7.87v-20.18h-8.41Z"/>
  <path class="st0" d="M1035.11,627.51c-1.81-.84-3.23-2.11-4.27-3.79-1.04-1.69-1.55-3.72-1.55-6.09v-16.2h7.87v15.74c0,1.52.38,2.65,1.14,3.38.76.73,1.75,1.1,2.96,1.1s2.2-.37,2.96-1.1c.76-.73,1.14-1.86,1.14-3.38v-15.74h7.87v16.2c0,2.38-.52,4.41-1.55,6.09-1.04,1.68-2.46,2.95-4.27,3.79-1.81.84-3.86,1.26-6.15,1.26s-4.34-.42-6.15-1.26Z"/>
  <path class="st0" d="M1073.04,601.42c2.93,0,5.49.6,7.71,1.8,2.21,1.2,3.92,2.83,5.11,4.87,1.2,2.04,1.8,4.29,1.8,6.75s-.6,4.71-1.8,6.75c-1.2,2.05-2.91,3.67-5.11,4.87-2.21,1.2-4.78,1.8-7.71,1.8h-11.19v-26.85h11.19ZM1077.54,619.69c1.2-1.27,1.8-2.89,1.8-4.85s-.6-3.58-1.8-4.85c-1.2-1.27-2.8-1.91-4.78-1.91h-3.02v13.51h3.02c1.99,0,3.58-.63,4.78-1.91Z"/>
  <path class="st0" d="M1103.41,601.42v26.85h-7.87v-26.85h7.87Z"/>
  <path class="st0" d="M1118.16,626.92c-2.18-1.23-3.87-2.91-5.07-5.03-1.2-2.13-1.8-4.47-1.8-7.04s.6-4.87,1.8-6.98c1.2-2.11,2.89-3.78,5.07-5.01,2.18-1.23,4.68-1.84,7.5-1.84s5.32.61,7.5,1.84c2.18,1.23,3.88,2.9,5.1,5.01,1.22,2.11,1.82,4.44,1.82,6.98s-.61,4.92-1.82,7.04c-1.22,2.13-2.91,3.81-5.1,5.03-2.18,1.23-4.68,1.84-7.5,1.84s-5.32-.61-7.5-1.84ZM1130.14,619.74c1.16-1.27,1.74-2.9,1.74-4.89s-.58-3.57-1.74-4.83-2.65-1.89-4.47-1.89c-1.13,0-2.17.29-3.11.87-.94.58-1.68,1.38-2.24,2.4-.55,1.02-.83,2.17-.83,3.44,0,1.99.58,3.62,1.74,4.89s2.64,1.91,4.43,1.91,3.31-.63,4.47-1.91Z"/>
</svg>